PathFileType	4	(X/Y/Z)	Formatted/subject04/trials/walk2/markers.trc
DataRate	CameraRate	NumFrames	NumMarkers	Units	OrigDataRate	OrigDataStartFrame	OrigNumFrames
199.9999999999954	199.9999999999954	4	64	m	199.9999999999954	111	223
Frame#	Time	CLAV			C7			RACR			RASH			RPSH			RLEL			RMEL			RUA1			RUA2			RUA3			RFAsuperior			RFAradius			RFAulna			RASI			RPSI			RCAL			RTOE			RMT5			RTH1			RTH2			RTH3			RTB1			RTB2			RTB3			RLFC			RMFC			RLMAL			RMMAL			RHJC			RKJC			REJC			RAJC			RSJC			LACR			LASH			LPSH			LLEL			LMEL			LUA1			LUA2			LUA3			LFAsuperior			LFAradius			LFAulna			LASI			LPSI			LCAL			LTOE			LMT5			LTH1			LTH2			LTH3			LTB1			LTB2			LTB3			LLFC			LMFC			LLMAL			LMMAL			LHJC			LKJC			LEJC			LAJC			LSJC			
		X1	Y1	Z1	X2	Y2	Z2	X3	Y3	Z3	X4	Y4	Z4	X5	Y5	Z5	X6	Y6	Z6	X7	Y7	Z7	X8	Y8	Z8	X9	Y9	Z9	X10	Y10	Z10	X11	Y11	Z11	X12	Y12	Z12	X13	Y13	Z13	X14	Y14	Z14	X15	Y15	Z15	X16	Y16	Z16	X17	Y17	Z17	X18	Y18	Z18	X19	Y19	Z19	X20	Y20	Z20	X21	Y21	Z21	X22	Y22	Z22	X23	Y23	Z23	X24	Y24	Z24	X25	Y25	Z25	X26	Y26	Z26	X27	Y27	Z27	X28	Y28	Z28	X29	Y29	Z29	X30	Y30	Z30	X31	Y31	Z31	X32	Y32	Z32	X33	Y33	Z33	X34	Y34	Z34	X35	Y35	Z35	X36	Y36	Z36	X37	Y37	Z37	X38	Y38	Z38	X39	Y39	Z39	X40	Y40	Z40	X41	Y41	Z41	X42	Y42	Z42	X43	Y43	Z43	X44	Y44	Z44	X45	Y45	Z45	X46	Y46	Z46	X47	Y47	Z47	X48	Y48	Z48	X49	Y49	Z49	X50	Y50	Z50	X51	Y51	Z51	X52	Y52	Z52	X53	Y53	Z53	X54	Y54	Z54	X55	Y55	Z55	X56	Y56	Z56	X57	Y57	Z57	X58	Y58	Z58	X59	Y59	Z59	X60	Y60	Z60	X61	Y61	Z61	X62	Y62	Z62	X63	Y63	Z63	X64	Y64	Z64	

112	1.965	1.952889156927131	1.416303629571436	-0.4490796148406471	1.851155642036294	1.519121114791179	-0.4697272170355841	1.914334155343586	1.466056999853957	-0.3017631628198459	1.967711275785541	1.412358009952429	-0.2811920227655685	1.870075603800559	1.44000935220562	-0.2721800957991521	1.903048042989624	1.136901071910918	-0.1747697202555473	1.839345835619609	1.134063207556069	-0.2326902555623643	1.917489624831681	1.319016932776037	-0.2194463380331599	1.865841321015639	1.284247551369614	-0.1927925150376329	1.910937190034439	1.21979846425419	-0.1976036044584963	1.937407968990292	1.096408358528372	-0.266637034581573	2.083612467524366	0.9863360987543657	-0.3075126191513058	2.057901745134937	0.9557945280055794	-0.2458983326009004	1.896639817602078	0.9711902549540014	-0.3304932949740413	1.725353200737996	1.021448153277863	-0.4216192867377254	1.429501922829564	0.1046877785673437	-0.3820401477849123	1.655915094440112	0.04051700266917736	-0.3763492544521583	1.629861968115933	0.02441922417952642	-0.3022867467127409	1.816999983488226	0.7909483065387026	-0.2807385488909694	1.816893543092102	0.684860817765819	-0.2899246232152853	1.708144773332843	0.5816960025169323	-0.3011571708968337	1.665960368432307	0.3183977707133296	-0.3603712484755943	1.5844810378839	0.2417161719086901	-0.3166287185155378	1.580402415547439	0.1622102353230776	-0.3761955635493816	1.68271260301335	0.4634958430223733	-0.3142956214596671	1.693361942761038	0.4734127769026867	-0.4390842806791874	1.50526150080397	0.08426590468562867	-0.3144787446478403	1.513264025949185	0.07826873485169422	-0.4152409653922161	1.814088311827316	0.8892779345005185	-0.3913230556226922	1.694252337031066	0.4734558803727332	-0.3816870402544192	1.873701453916037	1.130848789361313	-0.2016586509848707	1.492535524592917	0.07519500557504777	-0.3725132936512584	1.921973845244176	1.425311281230936	-0.2769703855781507	1.882808995194348	1.476282936799909	-0.6482889440955236	1.931868304909631	1.412746094616592	-0.6707073420042703	1.826421779165851	1.442609544250038	-0.6609744608805406	1.749755169442472	1.166152419651926	-0.7356758146085488	1.724531475440309	1.164289860674919	-0.6535584366672464	1.817459770989443	1.362153136756872	-0.7144110576979134	1.7457601848864	1.308057885261628	-0.6916213626532658	1.782163411879893	1.231033159857888	-0.7268479802144213	1.770623131907469	1.076586090934136	-0.6890610669703989	1.778510453121819	0.891191755761862	-0.7171996565673905	1.716544152827729	0.9071960002595149	-0.7562876547903128	1.915090497285156	0.9839318404118881	-0.5869667974055575	1.734429709514764	1.027595083697242	-0.5142553890464986	2.068800969213738	0.05585902215573215	-0.5516457044835563	2.293554021693414	0.1426781660794586	-0.5666261848594332	2.267018082748224	0.109997224715525	-0.6497799000972243	1.853068793171906	0.8374235865338233	-0.6570298927735396	1.953630066634007	0.7372340908676468	-0.6446377070769785	1.92093164197697	0.601228806289294	-0.6380631204460548	2.073861263807698	0.3517800329823356	-0.5866387091802389	2.060606510527536	0.2825970596025587	-0.6271515904543001	2.118616141036879	0.2202315132132995	-0.57872288974699	1.98987584812993	0.5015561819057343	-0.6191803756543486	1.99788672446953	0.5020439245754601	-0.5005784125778473	2.132052246574017	0.09087206659609148	-0.6235916512379042	2.149234677716811	0.09522004332985767	-0.5238976657503085	1.825170452189657	0.898925301554626	-0.5501171046029693	1.994630617427335	0.5013993559197494	-0.5581243394347706	1.73609104392098	1.158671115829395	-0.6963889353488801	2.133728481556943	0.07714865411674132	-0.5651014918482051	1.886130874368266	1.425699365895099	-0.6664857048168524	
113	1.97	1.959565427385856	1.415704687287986	-0.450206353916326	1.857646037192132	1.51828813107574	-0.4710999356710361	1.920805999600758	1.465629126835303	-0.3030014622474964	1.974273076142373	1.412069239135318	-0.2823016926374237	1.876576971184982	1.439544478336343	-0.273406845420587	1.909461281996933	1.136353420567397	-0.1764558170419139	1.845953000888966	1.133560064549545	-0.2345910774352948	1.923913154411241	1.318550917940666	-0.220794982295997	1.872203268276702	1.283700506921655	-0.1943673456537374	1.917363359675831	1.219292932843582	-0.1991317302087064	1.944021560453695	1.095522830955731	-0.2681299260208772	2.089996021289895	0.9848694854578197	-0.3082518039800968	2.063953982258468	0.9545373077781816	-0.2466732338683981	1.903590893361616	0.9705487960313005	-0.3306203091212135	1.732623913815398	1.020431769210226	-0.4225490245874005	1.43104788494739	0.1078151130082466	-0.3817574925699345	1.656468936711379	0.04024142023912048	-0.3760702707344903	1.630182054374987	0.02455344852314783	-0.3020024215913682	1.823956583379258	0.7903423276271118	-0.2809495237314439	1.823697200746363	0.6842359227979908	-0.2899113393998755	1.714805278024369	0.5812250509115899	-0.3011698293527236	1.670499912017404	0.3180912261463671	-0.3601631208019754	1.587936804119829	0.2425914118808154	-0.3163970484477046	1.582727421628111	0.1631323517711186	-0.3759382798789024	1.689209312383585	0.4630389509279429	-0.3141152605337259	1.700154696287951	0.4726740007339994	-0.4389003873352587	1.506483926658238	0.08628551158431086	-0.314197417312745	1.514401308525476	0.08014247903174321	-0.414957577095675	1.82145378329578	0.8884419792144005	-0.3917480844001784	1.700996525926193	0.4727239864864067	-0.3815285556727467	1.880208288712448	1.130321977296363	-0.2034512071307202	1.493630711664754	0.07737794066031778	-0.3722292241413633	1.928507335775083	1.424940014939038	-0.2781349014586965	1.889513039060311	1.475213028459557	-0.6495666394477557	1.938712837384662	1.411734878947504	-0.6718429750649798	1.833201044030679	1.44140813728461	-0.6622365400707961	1.757498026551302	1.164528233846466	-0.736694340457974	1.732147966554011	1.162709775054566	-0.654614895462481	1.824553031281208	1.360772257285511	-0.7156160656736434	1.752986865211944	1.306486436012169	-0.6928601749036744	1.789688292089107	1.229523584793502	-0.7279121740097857	1.778274265293953	1.074974900293337	-0.6899244487025112	1.786161604403433	0.8895475185386357	-0.7178444335123909	1.724277374871505	0.9055273572049702	-0.7570721878527908	1.923159973391219	0.9831102928926714	-0.5870197883204387	1.742101657563316	1.026517866692041	-0.5151489544308273	2.070779557106246	0.054161412480089	-0.5510936846775423	2.297102991769515	0.1371207347221835	-0.5641844034594313	2.270709212108438	0.1048929321231362	-0.6475599243083159	1.861558126389231	0.8365334951100608	-0.6573311197708146	1.962153817046574	0.7364198747045927	-0.6446094430345342	1.929540234547388	0.6003864352331996	-0.6381979549225731	2.080476567468576	0.3498128222241709	-0.5859305311340489	2.06653574778942	0.2808370856644104	-0.6265663177269387	2.123249974928093	0.2176258577283888	-0.5777016601169351	1.998495248030082	0.5007623685664386	-0.619099653406075	2.006077839110393	0.501216820750858	-0.5004694065718006	2.135155416248444	0.08809255528440985	-0.6225010478780234	2.151615511323565	0.09217262025890077	-0.5226739477299319	1.833225311311828	0.8979772452986592	-0.5504992902113713	2.003208707084003	0.5005637314571709	-0.5579958301137157	1.743794129495116	1.157063055988611	-0.6974182479825264	2.13617232221027	0.07433592939276668	-0.5640035119848685	1.892947097017372	1.424605654751224	-0.6676761838862526	
114	1.975	1.966260543890712	1.415152414592042	-0.4513510895875879	1.864143636295112	1.517486772149417	-0.4725001614770988	1.927272587713071	1.465239158087284	-0.3042617275089319	1.980834553787862	1.411826077010104	-0.2834283680511398	1.883073538187693	1.439110727073293	-0.2746609454103156	1.915773914971826	1.135828996239713	-0.1782300983055489	1.852504925017137	1.133095798897763	-0.2366285370735549	1.930282780870751	1.318114232966817	-0.2221883912940297	1.878489292620935	1.283182485404884	-0.1960332572297225	1.923712078516383	1.21881374128553	-0.2007272140189738	1.950579837013449	1.094616130718321	-0.2696772553339087	2.096291539412997	0.9832991408897216	-0.308908604234994	2.0698578209351	0.9532065820380533	-0.2473793792610434	1.910557942390619	0.9699898340546562	-0.3307145615318602	1.739951517884991	1.019463194827594	-0.423530197751334	1.43274875433184	0.11117033687374	-0.3814743066118542	1.65705427204541	0.03997756392580643	-0.3758331340142392	1.630532460327151	0.02471123315003965	-0.3017609289434917	1.830998706059066	0.7897991017215349	-0.2811187621523116	1.830640308805775	0.6836741655230462	-0.2898548959346001	1.721658379199683	0.5807614089339492	-0.3011397400838892	1.675226282591475	0.3178173625978835	-0.3599364947755726	1.591563725939772	0.2435464128462974	-0.3161556717287574	1.585183581295823	0.1641638004844709	-0.3756849313305632	1.695958895448067	0.4625766605274659	-0.3138909617464414	1.707196716837668	0.4719330698728125	-0.4386712985749317	1.507820964319799	0.08845567277556576	-0.3139293941232488	1.515642542027187	0.08218203670271357	-0.4146889891832126	1.82885623472326	0.8876647597759216	-0.3921315969338162	1.707992809551366	0.4719817386225856	-0.3813261117286651	1.886635245565707	1.129825655641607	-0.2053550841485805	1.494835485074531	0.07972955856448538	-0.3719593244934868	1.935038406029963	1.424607571332205	-0.2793212689150457	1.896251101311889	1.474183064525948	-0.6508684160142953	1.945602770797698	1.41077158577111	-0.6729982110935735	1.840020873949515	1.440239007839354	-0.6635293946414833	1.76537044925287	1.162916789408864	-0.7377813191496979	1.739880043412109	1.161127718269889	-0.6557447050097588	1.831716847746097	1.359418517512915	-0.7168621814558207	1.760295984380616	1.304920569044411	-0.6941568743501455	1.797322732479645	1.228034163680233	-0.7290340651666039	1.786072338352828	1.073378822893551	-0.6908597194479734	1.794020214545561	0.8879234901018787	-0.7185761473846797	1.732221538054235	0.903863844049519	-0.7579545490675517	1.931341433455394	0.9822565490171126	-0.5870327373084276	1.749865185305129	1.025446941213162	-0.516091146285762	2.072051376230535	0.05251670487916331	-0.5507781111329297	2.300103460670825	0.1309275238502552	-0.5617281519362185	2.273848429283122	0.09924931154205882	-0.6453577192779844	1.870176542662396	0.8356748200995048	-0.6576017298906686	1.970803505903512	0.7356337511833533	-0.6445606475933625	1.938276220224264	0.5995691434432217	-0.6383761666512896	2.086946110717782	0.3477391150931519	-0.5852947998195577	2.072231729651219	0.2790206779583452	-0.626093442283354	2.127486401448023	0.2148679352791298	-0.5767855878195729	2.007237462360003	0.4999871951074661	-0.6190817033732492	2.01435646031877	0.5003605761101213	-0.5004224511721254	2.137662258902898	0.08518058107406373	-0.6215655297935389	2.153329484221248	0.08894067616759244	-0.521598378589922	1.841376687185424	0.8970169174164908	-0.5508363887179542	2.011909585318612	0.4997158906750531	-0.5579253653381946	1.751621936944418	1.155460339372809	-0.698519163359675	2.137952739709202	0.07137933325127099	-0.5630703869296755	1.899806623039798	1.423553080093211	-0.6688911119574794	
115	1.98	1.97298081782382	1.414645976707162	-0.452509153714544	1.870654418126905	1.516716561056017	-0.473918743414187	1.933739454613882	1.464878912720391	-0.3055370795286959	1.9874013795858	1.411619685602909	-0.2845675101146913	1.889570917010331	1.438698258441508	-0.2759368968511732	1.921997318228058	1.135319402761438	-0.180085731061847	1.859011379654944	1.132661620328654	-0.2387928076603377	1.936606986665445	1.317698041839737	-0.2236211860024778	1.884709541969976	1.282684857636148	-0.1977829272232443	1.929993299949516	1.218352276180659	-0.2023839097825473	1.95708971479831	1.093683719983356	-0.2712746529793818	2.102505520128602	0.9816286150054612	-0.3094894169562712	2.075625012496152	0.9518040097309306	-0.2480233260902898	1.917545271682778	0.9695071362273113	-0.3307912434119261	1.747342203564189	1.01855291875329	-0.4245693573566134	1.434615363224388	0.1147558535390335	-0.3811839580745354	1.657670323698796	0.03972956692285138	-0.3756395961282771	1.630915230735804	0.0248965264851782	-0.3015632515361421	1.83812299930175	0.7893191544569703	-0.2812517085712619	1.837721524808619	0.6831759212589485	-0.2897607290606137	1.72870437775908	0.5803028780142193	-0.3010674872014275	1.680141316786282	0.3175763126169021	-0.3596912149702056	1.595367180284983	0.2445815570852309	-0.3159022977137885	1.587775776393189	0.1653071327411964	-0.3754335867278731	1.702963722284602	0.4621060488352698	-0.3136221716927766	1.714485029356353	0.4711877758097994	-0.4383969496047099	1.509281352034421	0.09077910339327389	-0.313670817453561	1.516993943170903	0.08439133727126552	-0.4144316430058914	1.836285536548131	0.8869473114294357	-0.3924789237339965	1.715240269189005	0.4712266305206519	-0.3810795105032067	1.892992982026169	1.129351248792299	-0.2073620326764177	1.496157545427689	0.08225320220435317	-0.371699390314649	1.941572699392321	1.42430464304915	-0.2805244993313962	1.903030029208533	1.47320137645064	-0.6521870332086416	1.95254530964893	1.409865942475062	-0.6741686290378063	1.846888410067423	1.439110801140749	-0.6648475667132068	1.773370732411369	1.161332102037744	-0.7389284733182969	1.747728557089938	1.15955791267465	-0.6569388476214983	1.838955389002845	1.358103503231717	-0.7181425993964634	1.767691148408728	1.303373834588416	-0.6955026244705143	1.805066993683987	1.226577820519631	-0.7302061726604069	1.794014466159386	1.071810945559397	-0.6918596577361772	1.802077210775376	0.8863326596891414	-0.7193886823157833	1.740366947082891	0.9022205052501843	-0.7589266329149946	1.939625308363661	0.9813482985308699	-0.5870210072679403	1.757721671126922	1.024386682207062	-0.5170888097609405	2.072931691000632	0.05091010185528928	-0.5507060438418182	2.302686174017078	0.1244860564442675	-0.5593876095438604	2.276581786405362	0.09340955804649162	-0.6432896508583225	1.87888884861752	0.8348288964754539	-0.6578456795506028	1.979526901193174	0.734839640329938	-0.6444964452000235	1.947064087959383	0.5987470609627614	-0.6385951575612976	2.093286176259554	0.3455948175905998	-0.5847574366614681	2.077757882837345	0.2771726762803514	-0.6257519304530159	2.131458531799785	0.2120391762342659	-0.576014769966927	2.016010468656732	0.499189332607892	-0.6191234093606059	2.022637192013693	0.4994377679506165	-0.5004353202544501	2.139803243484535	0.082232281051968	-0.620827010134924	2.154638558980022	0.08564142135038227	-0.5207204531037771	1.849606097443629	0.8960354401631685	-0.5511339081851205	2.020631796514615	0.4988174927208787	-0.5579123377813993	1.759573806277844	1.15387713912823	-0.6996830217041329	2.139333514776123	0.06838072767684267	-0.5623449241318982	1.906716629455451	1.422550899921303	-0.6701256182545112	
